# Blender 4.5.3 LTS
# www.blender.org
mtllib beam_tuto_base.mtl
o Sphere
v -0.000000 1.832417 0.762825
v 0.397218 1.996950 1.143838
v 0.357487 1.797207 0.762825
v 0.304017 1.528399 0.428864
v 0.238865 1.200855 0.154790
v 0.164533 0.827164 -0.048866
v 0.083878 0.421684 -0.174276
v 0.779171 1.881085 1.143838
v 0.701235 1.692932 0.762825
v 0.596352 1.439720 0.428864
v 0.468551 1.131181 0.154790
v 0.322743 0.779171 -0.048866
v 0.164533 0.397218 -0.174276
v 1.131181 1.692932 1.143838
v 1.018036 1.523598 0.762825
v 0.865768 1.295714 0.428864
v 0.680230 1.018036 0.154790
v 0.468551 0.701236 -0.048866
v 0.238865 0.357487 -0.174276
v 1.439720 1.439720 1.143838
v 1.295714 1.295714 0.762825
v 1.101914 1.101914 0.428864
v 0.865768 0.865768 0.154790
v 0.596352 0.596352 -0.048866
v 0.304017 0.304017 -0.174276
v 1.692932 1.131181 1.143838
v 1.523599 1.018036 0.762825
v 1.295714 0.865769 0.428864
v 1.018036 0.680230 0.154790
v 0.701235 0.468551 -0.048866
v 0.357487 0.238865 -0.174276
v 1.881085 0.779171 1.143838
v 1.692932 0.701235 0.762825
v 1.439721 0.596352 0.428864
v 1.131181 0.468551 0.154790
v 0.779171 0.322743 -0.048866
v 0.397218 0.164533 -0.174276
v 1.996950 0.397218 1.143838
v 1.797207 0.357487 0.762825
v 1.528399 0.304018 0.428864
v 1.200855 0.238865 0.154790
v 0.827163 0.164533 -0.048866
v 0.421684 0.083878 -0.174276
v 2.036072 0.000000 1.143838
v 1.832416 -0.000000 0.762825
v 1.558342 0.000000 0.428864
v 1.224381 -0.000000 0.154790
v 0.843369 -0.000000 -0.048866
v 0.429945 0.000000 -0.174276
v 1.996950 -0.397218 1.143838
v 1.797207 -0.357487 0.762825
v 1.528399 -0.304017 0.428864
v 1.200855 -0.238865 0.154790
v 0.827163 -0.164533 -0.048866
v 0.421684 -0.083878 -0.174276
v 1.881085 -0.779171 1.143838
v 1.692932 -0.701236 0.762825
v 1.439720 -0.596352 0.428864
v 1.131181 -0.468551 0.154790
v 0.779171 -0.322743 -0.048866
v 0.397218 -0.164533 -0.174276
v 1.692932 -1.131181 1.143838
v 1.523598 -1.018036 0.762825
v 1.295714 -0.865768 0.428864
v 1.018036 -0.680230 0.154790
v 0.701235 -0.468551 -0.048866
v 0.357487 -0.238865 -0.174276
v 1.439720 -1.439720 1.143838
v 1.295714 -1.295714 0.762825
v 1.101914 -1.101914 0.428864
v 0.865768 -0.865768 0.154790
v 0.596351 -0.596352 -0.048866
v 0.304017 -0.304017 -0.174276
v 1.131181 -1.692932 1.143838
v 1.018036 -1.523598 0.762825
v 0.865768 -1.295714 0.428864
v 0.680229 -1.018036 0.154790
v 0.468550 -0.701235 -0.048866
v 0.238865 -0.357487 -0.174276
v 0.779171 -1.881085 1.143838
v 0.701235 -1.692932 0.762825
v 0.596352 -1.439721 0.428864
v 0.468550 -1.131181 0.154790
v 0.322743 -0.779171 -0.048866
v 0.164533 -0.397218 -0.174276
v 0.397218 -1.996949 1.143838
v 0.357486 -1.797207 0.762825
v 0.304017 -1.528399 0.428864
v 0.238865 -1.200855 0.154790
v 0.164533 -0.827163 -0.048866
v 0.083878 -0.421684 -0.174276
v -0.000000 -2.036072 1.143838
v -0.000000 -1.832416 0.762825
v -0.000000 -1.558342 0.428864
v -0.000000 -1.224381 0.154790
v -0.000000 -0.843369 -0.048866
v -0.000000 -0.429945 -0.174276
v -0.397218 -1.996949 1.143838
v -0.357487 -1.797207 0.762825
v -0.304018 -1.528399 0.428864
v -0.238865 -1.200855 0.154790
v -0.164533 -0.827163 -0.048866
v -0.083878 -0.421684 -0.174276
v -0.779171 -1.881085 1.143838
v -0.701236 -1.692932 0.762825
v -0.596352 -1.439720 0.428864
v -0.468551 -1.131181 0.154790
v -0.322743 -0.779171 -0.048866
v -0.164533 -0.397218 -0.174276
v -1.131181 -1.692932 1.143838
v -1.018036 -1.523598 0.762825
v -0.865769 -1.295714 0.428864
v -0.680230 -1.018035 0.154790
v -0.468551 -0.701235 -0.048866
v -0.238865 -0.357486 -0.174276
v -1.439720 -1.439720 1.143838
v -1.295714 -1.295714 0.762825
v -1.101914 -1.101914 0.428864
v -0.865768 -0.865768 0.154790
v -0.596352 -0.596351 -0.048866
v -0.304017 -0.304017 -0.174276
v -0.000000 0.000000 -0.216622
v -1.692932 -1.131181 1.143838
v -1.523598 -1.018035 0.762825
v -1.295714 -0.865768 0.428864
v -1.018036 -0.680229 0.154790
v -0.701235 -0.468550 -0.048866
v -0.357487 -0.238865 -0.174276
v -1.881085 -0.779171 1.143838
v -1.692932 -0.701235 0.762825
v -1.439720 -0.596352 0.428864
v -1.131180 -0.468550 0.154790
v -0.779171 -0.322743 -0.048866
v -0.397218 -0.164533 -0.174276
v -1.996949 -0.397218 1.143838
v -1.797206 -0.357486 0.762825
v -1.528399 -0.304017 0.428864
v -1.200855 -0.238864 0.154790
v -0.827163 -0.164533 -0.048866
v -0.421684 -0.083878 -0.174276
v -2.036072 0.000000 1.143838
v -1.832416 0.000000 0.762825
v -1.558342 0.000000 0.428864
v -1.224381 0.000000 0.154790
v -0.843369 0.000000 -0.048866
v -0.429945 0.000000 -0.174276
v -1.996949 0.397218 1.143838
v -1.797206 0.357487 0.762825
v -1.528399 0.304018 0.428864
v -1.200855 0.238865 0.154790
v -0.827163 0.164533 -0.048866
v -0.421684 0.083878 -0.174276
v -1.881085 0.779171 1.143838
v -1.692931 0.701235 0.762825
v -1.439720 0.596352 0.428864
v -1.131180 0.468551 0.154790
v -0.779171 0.322743 -0.048866
v -0.397218 0.164533 -0.174276
v -1.692932 1.131181 1.143838
v -1.523598 1.018036 0.762825
v -1.295714 0.865768 0.428864
v -1.018035 0.680230 0.154790
v -0.701235 0.468551 -0.048866
v -0.357486 0.238865 -0.174276
v -1.439720 1.439720 1.143838
v -1.295713 1.295714 0.762825
v -1.101914 1.101914 0.428864
v -0.865768 0.865768 0.154790
v -0.596352 0.596352 -0.048866
v -0.304017 0.304017 -0.174276
v -1.131181 1.692931 1.143838
v -1.018035 1.523598 0.762825
v -0.865768 1.295714 0.428864
v -0.680229 1.018035 0.154790
v -0.468550 0.701235 -0.048866
v -0.238865 0.357486 -0.174276
v -0.779171 1.881085 1.143838
v -0.701235 1.692931 0.762825
v -0.596352 1.439720 0.428864
v -0.468550 1.131180 0.154790
v -0.322743 0.779171 -0.048866
v -0.164533 0.397218 -0.174276
v -0.397218 1.996949 1.143838
v -0.357486 1.797206 0.762825
v -0.304017 1.528399 0.428864
v -0.238864 1.200854 0.154790
v -0.164533 0.827163 -0.048866
v -0.083878 0.421684 -0.174276
v 0.000000 2.036071 1.143838
v 0.000000 1.558342 0.428864
v 0.000000 1.224380 0.154790
v 0.000000 0.843368 -0.048866
v -0.000000 0.429945 -0.174276
vn 0.0759 0.7708 -0.6326
vn 0.0624 0.6332 -0.7715
vn 0.0464 0.4709 -0.8810
vn 0.0286 0.2902 -0.9565
vn 0.0097 0.0980 -0.9951
vn 0.0865 0.8786 -0.4696
vn 0.2563 0.8448 -0.4696
vn 0.2248 0.7412 -0.6326
vn 0.1847 0.6088 -0.7715
vn 0.1374 0.4528 -0.8810
vn 0.0846 0.2790 -0.9565
vn 0.0286 0.0942 -0.9951
vn 0.1374 0.2571 -0.9565
vn 0.0464 0.0869 -0.9951
vn 0.4162 0.7786 -0.4696
vn 0.3651 0.6831 -0.6326
vn 0.2999 0.5611 -0.7715
vn 0.2230 0.4173 -0.8810
vn 0.4913 0.5987 -0.6326
vn 0.4036 0.4918 -0.7715
vn 0.3002 0.3658 -0.8810
vn 0.1850 0.2254 -0.9565
vn 0.0625 0.0761 -0.9951
vn 0.5601 0.6825 -0.4696
vn 0.0761 0.0625 -0.9951
vn 0.6825 0.5601 -0.4696
vn 0.5987 0.4913 -0.6326
vn 0.4918 0.4036 -0.7715
vn 0.3658 0.3002 -0.8810
vn 0.2254 0.1850 -0.9565
vn 0.6831 0.3651 -0.6326
vn 0.5611 0.2999 -0.7715
vn 0.4173 0.2230 -0.8810
vn 0.2571 0.1374 -0.9565
vn 0.0869 0.0464 -0.9951
vn 0.7786 0.4162 -0.4696
vn 0.0942 0.0286 -0.9951
vn 0.8448 0.2563 -0.4696
vn 0.7412 0.2248 -0.6326
vn 0.6088 0.1847 -0.7715
vn 0.4528 0.1374 -0.8810
vn 0.2790 0.0846 -0.9565
vn 0.6332 0.0624 -0.7715
vn 0.4709 0.0464 -0.8810
vn 0.2902 0.0286 -0.9565
vn 0.0980 0.0097 -0.9951
vn 0.8786 0.0865 -0.4696
vn 0.7708 0.0759 -0.6326
vn 0.8786 -0.0865 -0.4696
vn 0.7708 -0.0759 -0.6326
vn 0.6332 -0.0624 -0.7715
vn 0.4709 -0.0464 -0.8810
vn 0.2902 -0.0286 -0.9565
vn 0.0980 -0.0097 -0.9951
vn 0.4528 -0.1374 -0.8810
vn 0.2790 -0.0846 -0.9565
vn 0.0942 -0.0286 -0.9951
vn 0.8448 -0.2563 -0.4696
vn 0.7412 -0.2248 -0.6326
vn 0.6088 -0.1847 -0.7715
vn 0.7786 -0.4162 -0.4696
vn 0.6831 -0.3651 -0.6326
vn 0.5611 -0.2999 -0.7715
vn 0.4173 -0.2231 -0.8810
vn 0.2571 -0.1374 -0.9565
vn 0.0869 -0.0464 -0.9951
vn 0.3658 -0.3002 -0.8810
vn 0.2254 -0.1850 -0.9565
vn 0.0761 -0.0625 -0.9951
vn 0.6825 -0.5601 -0.4696
vn 0.5987 -0.4913 -0.6326
vn 0.4918 -0.4036 -0.7715
vn 0.5601 -0.6825 -0.4696
vn 0.4913 -0.5987 -0.6326
vn 0.4036 -0.4918 -0.7715
vn 0.3002 -0.3658 -0.8810
vn 0.1850 -0.2254 -0.9565
vn 0.0625 -0.0761 -0.9951
vn 0.1374 -0.2571 -0.9565
vn 0.0464 -0.0869 -0.9951
vn 0.4162 -0.7786 -0.4696
vn 0.3651 -0.6831 -0.6326
vn 0.2999 -0.5611 -0.7715
vn 0.2230 -0.4173 -0.8810
vn 0.2563 -0.8448 -0.4696
vn 0.2248 -0.7412 -0.6326
vn 0.1847 -0.6088 -0.7715
vn 0.1374 -0.4528 -0.8810
vn 0.0846 -0.2790 -0.9565
vn 0.0286 -0.0942 -0.9951
vn 0.0286 -0.2902 -0.9565
vn 0.0097 -0.0980 -0.9951
vn 0.0865 -0.8786 -0.4696
vn 0.0759 -0.7708 -0.6326
vn 0.0624 -0.6332 -0.7715
vn 0.0464 -0.4709 -0.8810
vn -0.0759 -0.7708 -0.6326
vn -0.0624 -0.6332 -0.7715
vn -0.0464 -0.4709 -0.8810
vn -0.0286 -0.2902 -0.9565
vn -0.0097 -0.0980 -0.9951
vn -0.0865 -0.8786 -0.4696
vn -0.0286 -0.0942 -0.9951
vn -0.2563 -0.8448 -0.4696
vn -0.2248 -0.7412 -0.6326
vn -0.1847 -0.6088 -0.7715
vn -0.1374 -0.4528 -0.8810
vn -0.0846 -0.2790 -0.9565
vn -0.2999 -0.5611 -0.7715
vn -0.2231 -0.4173 -0.8810
vn -0.1374 -0.2571 -0.9565
vn -0.0464 -0.0869 -0.9951
vn -0.4162 -0.7786 -0.4696
vn -0.3651 -0.6831 -0.6326
vn -0.5601 -0.6825 -0.4696
vn -0.4913 -0.5987 -0.6326
vn -0.4036 -0.4918 -0.7715
vn -0.3002 -0.3658 -0.8810
vn -0.1850 -0.2254 -0.9565
vn -0.0625 -0.0761 -0.9951
vn -0.4918 -0.4036 -0.7715
vn -0.3658 -0.3002 -0.8810
vn -0.2254 -0.1850 -0.9565
vn -0.0761 -0.0625 -0.9951
vn -0.6825 -0.5601 -0.4696
vn -0.5987 -0.4913 -0.6326
vn -0.7786 -0.4162 -0.4696
vn -0.6831 -0.3651 -0.6326
vn -0.5611 -0.2999 -0.7715
vn -0.4173 -0.2230 -0.8810
vn -0.2571 -0.1374 -0.9565
vn -0.0869 -0.0464 -0.9951
vn -0.4528 -0.1374 -0.8810
vn -0.2790 -0.0846 -0.9565
vn -0.0942 -0.0286 -0.9951
vn -0.8448 -0.2563 -0.4696
vn -0.7412 -0.2248 -0.6326
vn -0.6088 -0.1847 -0.7715
vn -0.8786 -0.0865 -0.4696
vn -0.7708 -0.0759 -0.6326
vn -0.6332 -0.0624 -0.7715
vn -0.4709 -0.0464 -0.8810
vn -0.2902 -0.0286 -0.9565
vn -0.0980 -0.0097 -0.9951
vn -0.4709 0.0464 -0.8810
vn -0.2902 0.0286 -0.9565
vn -0.0980 0.0097 -0.9951
vn -0.8786 0.0865 -0.4696
vn -0.7708 0.0759 -0.6326
vn -0.6332 0.0624 -0.7715
vn -0.8448 0.2563 -0.4696
vn -0.7412 0.2248 -0.6326
vn -0.6088 0.1847 -0.7715
vn -0.4528 0.1374 -0.8810
vn -0.2790 0.0846 -0.9565
vn -0.0942 0.0286 -0.9951
vn -0.2571 0.1374 -0.9565
vn -0.0869 0.0464 -0.9951
vn -0.7786 0.4162 -0.4696
vn -0.6831 0.3651 -0.6326
vn -0.5611 0.2999 -0.7715
vn -0.4173 0.2231 -0.8810
vn -0.5987 0.4913 -0.6326
vn -0.4918 0.4036 -0.7715
vn -0.3658 0.3002 -0.8810
vn -0.2254 0.1850 -0.9565
vn -0.0761 0.0625 -0.9951
vn -0.6825 0.5601 -0.4696
vn -0.0625 0.0761 -0.9951
vn -0.5601 0.6825 -0.4696
vn -0.4913 0.5987 -0.6326
vn -0.4036 0.4918 -0.7715
vn -0.3002 0.3658 -0.8810
vn -0.1850 0.2254 -0.9565
vn -0.3651 0.6831 -0.6326
vn -0.2999 0.5611 -0.7715
vn -0.2230 0.4173 -0.8810
vn -0.1374 0.2571 -0.9565
vn -0.0464 0.0869 -0.9951
vn -0.4162 0.7786 -0.4696
vn -0.0286 0.0942 -0.9951
vn -0.2563 0.8448 -0.4696
vn -0.2248 0.7412 -0.6326
vn -0.1847 0.6088 -0.7715
vn -0.1374 0.4528 -0.8810
vn -0.0846 0.2790 -0.9565
vn -0.0624 0.6332 -0.7715
vn -0.0464 0.4709 -0.8810
vn -0.0286 0.2902 -0.9565
vn -0.0097 0.0980 -0.9951
vn -0.0865 0.8786 -0.4696
vn -0.0759 0.7708 -0.6326
vt 0.750000 0.250000
vt 0.750000 0.312500
vt 0.718750 0.312500
vt 0.718750 0.250000
vt 0.750000 0.187500
vt 0.718750 0.187500
vt 0.750000 0.125000
vt 0.718750 0.125000
vt 0.750000 0.062500
vt 0.718750 0.062500
vt 0.734375 0.000000
vt 0.750000 0.375000
vt 0.718750 0.375000
vt 0.687500 0.375000
vt 0.687500 0.312500
vt 0.687500 0.250000
vt 0.687500 0.187500
vt 0.687500 0.125000
vt 0.687500 0.062500
vt 0.703125 0.000000
vt 0.656250 0.125000
vt 0.656250 0.062500
vt 0.671875 0.000000
vt 0.656250 0.375000
vt 0.656250 0.312500
vt 0.656250 0.250000
vt 0.656250 0.187500
vt 0.625000 0.312500
vt 0.625000 0.250000
vt 0.625000 0.187500
vt 0.625000 0.125000
vt 0.625000 0.062500
vt 0.640625 0.000000
vt 0.625000 0.375000
vt 0.609375 0.000000
vt 0.593750 0.062500
vt 0.593750 0.375000
vt 0.593750 0.312500
vt 0.593750 0.250000
vt 0.593750 0.187500
vt 0.593750 0.125000
vt 0.562500 0.312500
vt 0.562500 0.250000
vt 0.562500 0.187500
vt 0.562500 0.125000
vt 0.562500 0.062500
vt 0.578125 0.000000
vt 0.562500 0.375000
vt 0.546875 0.000000
vt 0.531250 0.062500
vt 0.531250 0.375000
vt 0.531250 0.312500
vt 0.531250 0.250000
vt 0.531250 0.187500
vt 0.531250 0.125000
vt 0.500000 0.250000
vt 0.500000 0.187500
vt 0.500000 0.125000
vt 0.500000 0.062500
vt 0.515625 0.000000
vt 0.500000 0.375000
vt 0.500000 0.312500
vt 0.468750 0.375000
vt 0.468750 0.312500
vt 0.468750 0.250000
vt 0.468750 0.187500
vt 0.468750 0.125000
vt 0.468750 0.062500
vt 0.484375 0.000000
vt 0.437500 0.187500
vt 0.437500 0.125000
vt 0.437500 0.062500
vt 0.453125 0.000000
vt 0.437500 0.375000
vt 0.437500 0.312500
vt 0.437500 0.250000
vt 0.406250 0.375000
vt 0.406250 0.312500
vt 0.406250 0.250000
vt 0.406250 0.187500
vt 0.406250 0.125000
vt 0.406250 0.062500
vt 0.421875 0.000000
vt 0.375000 0.187500
vt 0.375000 0.125000
vt 0.375000 0.062500
vt 0.390625 0.000000
vt 0.375000 0.375000
vt 0.375000 0.312500
vt 0.375000 0.250000
vt 0.343750 0.375000
vt 0.343750 0.312500
vt 0.343750 0.250000
vt 0.343750 0.187500
vt 0.343750 0.125000
vt 0.343750 0.062500
vt 0.359375 0.000000
vt 0.312500 0.125000
vt 0.312500 0.062500
vt 0.328125 0.000000
vt 0.312500 0.375000
vt 0.312500 0.312500
vt 0.312500 0.250000
vt 0.312500 0.187500
vt 0.281250 0.375000
vt 0.281250 0.312500
vt 0.281250 0.250000
vt 0.281250 0.187500
vt 0.281250 0.125000
vt 0.281250 0.062500
vt 0.296875 0.000000
vt 0.250000 0.125000
vt 0.250000 0.062500
vt 0.265625 0.000000
vt 0.250000 0.375000
vt 0.250000 0.312500
vt 0.250000 0.250000
vt 0.250000 0.187500
vt 0.218750 0.312500
vt 0.218750 0.250000
vt 0.218750 0.187500
vt 0.218750 0.125000
vt 0.218750 0.062500
vt 0.234375 0.000000
vt 0.218750 0.375000
vt 0.203125 0.000000
vt 0.187500 0.062500
vt 0.187500 0.375000
vt 0.187500 0.312500
vt 0.187500 0.250000
vt 0.187500 0.187500
vt 0.187500 0.125000
vt 0.156250 0.250000
vt 0.156250 0.187500
vt 0.156250 0.125000
vt 0.156250 0.062500
vt 0.171875 0.000000
vt 0.156250 0.375000
vt 0.156250 0.312500
vt 0.125000 0.375000
vt 0.125000 0.312500
vt 0.125000 0.250000
vt 0.125000 0.187500
vt 0.125000 0.125000
vt 0.125000 0.062500
vt 0.140625 0.000000
vt 0.093750 0.250000
vt 0.093750 0.187500
vt 0.093750 0.125000
vt 0.093750 0.062500
vt 0.109375 0.000000
vt 0.093750 0.375000
vt 0.093750 0.312500
vt 0.062500 0.375000
vt 0.062500 0.312500
vt 0.062500 0.250000
vt 0.062500 0.187500
vt 0.062500 0.125000
vt 0.062500 0.062500
vt 0.078125 0.000000
vt 0.031250 0.187500
vt 0.031250 0.125000
vt 0.031250 0.062500
vt 0.046875 0.000000
vt 0.031250 0.375000
vt 0.031250 0.312500
vt 0.031250 0.250000
vt 0.000000 0.375000
vt 0.000000 0.312500
vt 0.000000 0.250000
vt 0.000000 0.187500
vt 0.000000 0.125000
vt 0.000000 0.062500
vt 0.015625 0.000000
vt 1.000000 0.125000
vt 1.000000 0.187500
vt 0.968750 0.187500
vt 0.968750 0.125000
vt 1.000000 0.062500
vt 0.968750 0.062500
vt 0.984375 0.000000
vt 1.000000 0.312500
vt 1.000000 0.375000
vt 0.968750 0.375000
vt 0.968750 0.312500
vt 1.000000 0.250000
vt 0.968750 0.250000
vt 0.937500 0.375000
vt 0.937500 0.312500
vt 0.937500 0.250000
vt 0.937500 0.187500
vt 0.937500 0.125000
vt 0.937500 0.062500
vt 0.953125 0.000000
vt 0.906250 0.125000
vt 0.906250 0.062500
vt 0.921875 0.000000
vt 0.906250 0.375000
vt 0.906250 0.312500
vt 0.906250 0.250000
vt 0.906250 0.187500
vt 0.875000 0.312500
vt 0.875000 0.250000
vt 0.875000 0.187500
vt 0.875000 0.125000
vt 0.875000 0.062500
vt 0.890625 0.000000
vt 0.875000 0.375000
vt 0.859375 0.000000
vt 0.843750 0.062500
vt 0.843750 0.375000
vt 0.843750 0.312500
vt 0.843750 0.250000
vt 0.843750 0.187500
vt 0.843750 0.125000
vt 0.812500 0.312500
vt 0.812500 0.250000
vt 0.812500 0.187500
vt 0.812500 0.125000
vt 0.812500 0.062500
vt 0.828125 0.000000
vt 0.812500 0.375000
vt 0.796875 0.000000
vt 0.781250 0.062500
vt 0.781250 0.375000
vt 0.781250 0.312500
vt 0.781250 0.250000
vt 0.781250 0.187500
vt 0.781250 0.125000
vt 0.765625 0.000000
s 0
f 190/1/1 1/2/1 3/3/1 4/4/1
f 191/5/2 190/1/2 4/4/2 5/6/2
f 192/7/3 191/5/3 5/6/3 6/8/3
f 193/9/4 192/7/4 6/8/4 7/10/4
f 122/11/5 193/9/5 7/10/5
f 1/2/6 189/12/6 2/13/6 3/3/6
f 3/3/7 2/13/7 8/14/7 9/15/7
f 4/4/8 3/3/8 9/15/8 10/16/8
f 5/6/9 4/4/9 10/16/9 11/17/9
f 6/8/10 5/6/10 11/17/10 12/18/10
f 7/10/11 6/8/11 12/18/11 13/19/11
f 122/20/12 7/10/12 13/19/12
f 13/19/13 12/18/13 18/21/13 19/22/13
f 122/23/14 13/19/14 19/22/14
f 9/15/15 8/14/15 14/24/15 15/25/15
f 10/16/16 9/15/16 15/25/16 16/26/16
f 11/17/17 10/16/17 16/26/17 17/27/17
f 12/18/18 11/17/18 17/27/18 18/21/18
f 16/26/19 15/25/19 21/28/19 22/29/19
f 17/27/20 16/26/20 22/29/20 23/30/20
f 18/21/21 17/27/21 23/30/21 24/31/21
f 19/22/22 18/21/22 24/31/22 25/32/22
f 122/33/23 19/22/23 25/32/23
f 15/25/24 14/24/24 20/34/24 21/28/24
f 122/35/25 25/32/25 31/36/25
f 21/28/26 20/34/26 26/37/26 27/38/26
f 22/29/27 21/28/27 27/38/27 28/39/27
f 23/30/28 22/29/28 28/39/28 29/40/28
f 24/31/29 23/30/29 29/40/29 30/41/29
f 25/32/30 24/31/30 30/41/30 31/36/30
f 28/39/31 27/38/31 33/42/31 34/43/31
f 29/40/32 28/39/32 34/43/32 35/44/32
f 30/41/33 29/40/33 35/44/33 36/45/33
f 31/36/34 30/41/34 36/45/34 37/46/34
f 122/47/35 31/36/35 37/46/35
f 27/38/36 26/37/36 32/48/36 33/42/36
f 122/49/37 37/46/37 43/50/37
f 33/42/38 32/48/38 38/51/38 39/52/38
f 34/43/39 33/42/39 39/52/39 40/53/39
f 35/44/40 34/43/40 40/53/40 41/54/40
f 36/45/41 35/44/41 41/54/41 42/55/41
f 37/46/42 36/45/42 42/55/42 43/50/42
f 41/54/43 40/53/43 46/56/43 47/57/43
f 42/55/44 41/54/44 47/57/44 48/58/44
f 43/50/45 42/55/45 48/58/45 49/59/45
f 122/60/46 43/50/46 49/59/46
f 39/52/47 38/51/47 44/61/47 45/62/47
f 40/53/48 39/52/48 45/62/48 46/56/48
f 45/62/49 44/61/49 50/63/49 51/64/49
f 46/56/50 45/62/50 51/64/50 52/65/50
f 47/57/51 46/56/51 52/65/51 53/66/51
f 48/58/52 47/57/52 53/66/52 54/67/52
f 49/59/53 48/58/53 54/67/53 55/68/53
f 122/69/54 49/59/54 55/68/54
f 54/67/55 53/66/55 59/70/55 60/71/55
f 55/68/56 54/67/56 60/71/56 61/72/56
f 122/73/57 55/68/57 61/72/57
f 51/64/58 50/63/58 56/74/58 57/75/58
f 52/65/59 51/64/59 57/75/59 58/76/59
f 53/66/60 52/65/60 58/76/60 59/70/60
f 57/75/61 56/74/61 62/77/61 63/78/61
f 58/76/62 57/75/62 63/78/62 64/79/62
f 59/70/63 58/76/63 64/79/63 65/80/63
f 60/71/64 59/70/64 65/80/64 66/81/64
f 61/72/65 60/71/65 66/81/65 67/82/65
f 122/83/66 61/72/66 67/82/66
f 66/81/67 65/80/67 71/84/67 72/85/67
f 67/82/68 66/81/68 72/85/68 73/86/68
f 122/87/69 67/82/69 73/86/69
f 63/78/70 62/77/70 68/88/70 69/89/70
f 64/79/71 63/78/71 69/89/71 70/90/71
f 65/80/72 64/79/72 70/90/72 71/84/72
f 69/89/73 68/88/73 74/91/73 75/92/73
f 70/90/74 69/89/74 75/92/74 76/93/74
f 71/84/75 70/90/75 76/93/75 77/94/75
f 72/85/76 71/84/76 77/94/76 78/95/76
f 73/86/77 72/85/77 78/95/77 79/96/77
f 122/97/78 73/86/78 79/96/78
f 79/96/79 78/95/79 84/98/79 85/99/79
f 122/100/80 79/96/80 85/99/80
f 75/92/81 74/91/81 80/101/81 81/102/81
f 76/93/82 75/92/82 81/102/82 82/103/82
f 77/94/83 76/93/83 82/103/83 83/104/83
f 78/95/84 77/94/84 83/104/84 84/98/84
f 81/102/85 80/101/85 86/105/85 87/106/85
f 82/103/86 81/102/86 87/106/86 88/107/86
f 83/104/87 82/103/87 88/107/87 89/108/87
f 84/98/88 83/104/88 89/108/88 90/109/88
f 85/99/89 84/98/89 90/109/89 91/110/89
f 122/111/90 85/99/90 91/110/90
f 91/110/91 90/109/91 96/112/91 97/113/91
f 122/114/92 91/110/92 97/113/92
f 87/106/93 86/105/93 92/115/93 93/116/93
f 88/107/94 87/106/94 93/116/94 94/117/94
f 89/108/95 88/107/95 94/117/95 95/118/95
f 90/109/96 89/108/96 95/118/96 96/112/96
f 94/117/97 93/116/97 99/119/97 100/120/97
f 95/118/98 94/117/98 100/120/98 101/121/98
f 96/112/99 95/118/99 101/121/99 102/122/99
f 97/113/100 96/112/100 102/122/100 103/123/100
f 122/124/101 97/113/101 103/123/101
f 93/116/102 92/115/102 98/125/102 99/119/102
f 122/126/103 103/123/103 109/127/103
f 99/119/104 98/125/104 104/128/104 105/129/104
f 100/120/105 99/119/105 105/129/105 106/130/105
f 101/121/106 100/120/106 106/130/106 107/131/106
f 102/122/107 101/121/107 107/131/107 108/132/107
f 103/123/108 102/122/108 108/132/108 109/127/108
f 107/131/109 106/130/109 112/133/109 113/134/109
f 108/132/110 107/131/110 113/134/110 114/135/110
f 109/127/111 108/132/111 114/135/111 115/136/111
f 122/137/112 109/127/112 115/136/112
f 105/129/113 104/128/113 110/138/113 111/139/113
f 106/130/114 105/129/114 111/139/114 112/133/114
f 111/139/115 110/138/115 116/140/115 117/141/115
f 112/133/116 111/139/116 117/141/116 118/142/116
f 113/134/117 112/133/117 118/142/117 119/143/117
f 114/135/118 113/134/118 119/143/118 120/144/118
f 115/136/119 114/135/119 120/144/119 121/145/119
f 122/146/120 115/136/120 121/145/120
f 119/143/121 118/142/121 125/147/121 126/148/121
f 120/144/122 119/143/122 126/148/122 127/149/122
f 121/145/123 120/144/123 127/149/123 128/150/123
f 122/151/124 121/145/124 128/150/124
f 117/141/125 116/140/125 123/152/125 124/153/125
f 118/142/126 117/141/126 124/153/126 125/147/126
f 124/153/127 123/152/127 129/154/127 130/155/127
f 125/147/128 124/153/128 130/155/128 131/156/128
f 126/148/129 125/147/129 131/156/129 132/157/129
f 127/149/130 126/148/130 132/157/130 133/158/130
f 128/150/131 127/149/131 133/158/131 134/159/131
f 122/160/132 128/150/132 134/159/132
f 133/158/133 132/157/133 138/161/133 139/162/133
f 134/159/134 133/158/134 139/162/134 140/163/134
f 122/164/135 134/159/135 140/163/135
f 130/155/136 129/154/136 135/165/136 136/166/136
f 131/156/137 130/155/137 136/166/137 137/167/137
f 132/157/138 131/156/138 137/167/138 138/161/138
f 136/166/139 135/165/139 141/168/139 142/169/139
f 137/167/140 136/166/140 142/169/140 143/170/140
f 138/161/141 137/167/141 143/170/141 144/171/141
f 139/162/142 138/161/142 144/171/142 145/172/142
f 140/163/143 139/162/143 145/172/143 146/173/143
f 122/174/144 140/163/144 146/173/144
f 145/175/145 144/176/145 150/177/145 151/178/145
f 146/179/146 145/175/146 151/178/146 152/180/146
f 122/181/147 146/179/147 152/180/147
f 142/182/148 141/183/148 147/184/148 148/185/148
f 143/186/149 142/182/149 148/185/149 149/187/149
f 144/176/150 143/186/150 149/187/150 150/177/150
f 148/185/151 147/184/151 153/188/151 154/189/151
f 149/187/152 148/185/152 154/189/152 155/190/152
f 150/177/153 149/187/153 155/190/153 156/191/153
f 151/178/154 150/177/154 156/191/154 157/192/154
f 152/180/155 151/178/155 157/192/155 158/193/155
f 122/194/156 152/180/156 158/193/156
f 158/193/157 157/192/157 163/195/157 164/196/157
f 122/197/158 158/193/158 164/196/158
f 154/189/159 153/188/159 159/198/159 160/199/159
f 155/190/160 154/189/160 160/199/160 161/200/160
f 156/191/161 155/190/161 161/200/161 162/201/161
f 157/192/162 156/191/162 162/201/162 163/195/162
f 161/200/163 160/199/163 166/202/163 167/203/163
f 162/201/164 161/200/164 167/203/164 168/204/164
f 163/195/165 162/201/165 168/204/165 169/205/165
f 164/196/166 163/195/166 169/205/166 170/206/166
f 122/207/167 164/196/167 170/206/167
f 160/199/168 159/198/168 165/208/168 166/202/168
f 122/209/169 170/206/169 176/210/169
f 166/202/170 165/208/170 171/211/170 172/212/170
f 167/203/171 166/202/171 172/212/171 173/213/171
f 168/204/172 167/203/172 173/213/172 174/214/172
f 169/205/173 168/204/173 174/214/173 175/215/173
f 170/206/174 169/205/174 175/215/174 176/210/174
f 173/213/175 172/212/175 178/216/175 179/217/175
f 174/214/176 173/213/176 179/217/176 180/218/176
f 175/215/177 174/214/177 180/218/177 181/219/177
f 176/210/178 175/215/178 181/219/178 182/220/178
f 122/221/179 176/210/179 182/220/179
f 172/212/180 171/211/180 177/222/180 178/216/180
f 122/223/181 182/220/181 188/224/181
f 178/216/182 177/222/182 183/225/182 184/226/182
f 179/217/183 178/216/183 184/226/183 185/227/183
f 180/218/184 179/217/184 185/227/184 186/228/184
f 181/219/185 180/218/185 186/228/185 187/229/185
f 182/220/186 181/219/186 187/229/186 188/224/186
f 186/228/187 185/227/187 190/1/187 191/5/187
f 187/229/188 186/228/188 191/5/188 192/7/188
f 188/224/189 187/229/189 192/7/189 193/9/189
f 122/230/190 188/224/190 193/9/190
f 184/226/191 183/225/191 189/12/191 1/2/191
f 185/227/192 184/226/192 1/2/192 190/1/192
