# Blender 3.6.3
# www.blender.org
mtllib cube_clean_wrap.mtl
o Cube
v -1.000000 1.000000 -1.000000
v 1.000000 1.000000 -1.000000
v -1.000000 1.000000 1.000000
v 1.000000 1.000000 1.000000
v -1.000000 -1.000000 -1.000000
v 1.000000 -1.000000 -1.000000
v -1.000000 -1.000000 1.000000
v 1.000000 -1.000000 1.000000
vn -1.0000 -0.0000 -0.0000
vn -0.0000 -0.0000 1.0000
vn -0.0000 -1.0000 -0.0000
vn 1.0000 -0.0000 -0.0000
vn -0.0000 1.0000 -0.0000
vn -0.0000 -0.0000 -1.0000
vt 0.623730 0.501270
vt 0.876906 0.248692
vt 0.878702 0.998315
vt 0.623730 0.748730
vt 0.376270 0.748730
vt 0.124291 0.997117
vt 0.375000 0.000000
vt 0.625000 0.000000
vt 0.123047 0.250000
vt 0.376270 0.501270
s 0
usemtl Material
f 1/1/1 5/2/1 7/3/1 3/4/1
f 4/5/2 3/4/2 7/3/2 8/6/2
f 8/7/3 7/8/3 5/2/3 6/9/3
f 6/9/4 2/10/4 4/5/4 8/6/4
f 2/10/5 1/1/5 3/4/5 4/5/5
f 6/9/6 5/2/6 1/1/6 2/10/6
