# Blender 4.5.3 LTS
# www.blender.org
mtllib WhalePart5.mtl
o Part5
v 0.671650 0.538202 3.788792
v 0.671650 -0.447134 3.788792
v -0.690358 0.538202 3.788792
v -0.690358 -0.447134 3.788792
v -0.690358 0.538202 5.017886
v -0.690358 -0.447134 5.017886
v 1.088791 0.225927 4.148145
v 1.088791 -0.201563 4.148145
v -0.980118 -0.201563 5.925725
v -0.980118 0.225927 5.925725
v 0.961410 0.225927 5.925725
v 0.961410 -0.201563 5.925725
v -1.107499 0.225927 4.148145
v -1.107499 -0.201563 4.148145
v 0.217647 -0.447134 3.561833
v -0.236356 -0.447134 3.561833
v -0.236356 0.538202 4.724729
v -0.236356 0.538202 3.561833
v 0.217647 0.538202 3.561833
v -0.375403 -0.201563 3.561833
v 0.356694 -0.201563 3.561833
v -0.375403 0.225927 3.561833
v 0.356694 0.225927 3.561833
v 0.356694 0.225927 4.724729
v 0.671650 0.538202 5.017886
v 0.671650 -0.447134 5.017886
v 0.356694 -0.201563 4.724729
v -0.375403 -0.201563 4.724729
v -0.375403 0.225927 4.724729
v -0.236356 -0.447134 4.724729
v 0.217647 -0.447134 4.724729
v 0.217647 0.538202 4.724729
vn -0.0000 1.0000 -0.0000
vn 0.7857 0.2698 0.5567
vn -0.6344 0.7726 0.0269
vn -0.0000 -1.0000 -0.0000
vn 0.6344 0.7726 0.0269
vn 0.5653 0.0290 -0.8244
vn 0.5651 -0.0369 -0.8242
vn 0.6251 -0.0000 -0.7805
vn 0.5423 -0.8399 0.0230
vn 0.9974 -0.0000 0.0715
vn -0.5423 -0.8399 0.0230
vn -0.9974 -0.0000 0.0715
vn 0.7686 -0.3356 0.5446
vn 0.8932 -0.0000 0.4497
vn -0.8932 -0.0000 0.4497
vn -0.7686 -0.3356 0.5446
vn -0.6251 -0.0000 -0.7805
vn -0.0000 -0.0000 -1.0000
vn -0.5651 -0.0369 -0.8242
vn -0.5653 0.0290 -0.8244
vn -0.7857 0.2698 0.5567
vn -0.0000 -0.0000 1.0000
vt 0.791667 0.500000
vt 0.875000 0.500000
vt 0.875000 0.750000
vt 0.791667 0.750000
vt 0.541667 0.916667
vt 0.625000 0.916667
vt 0.625000 1.000000
vt 0.541667 1.000000
vt 0.541667 0.000000
vt 0.625000 0.000000
vt 0.625000 0.250000
vt 0.541667 0.250000
vt 0.291667 0.500000
vt 0.375000 0.500000
vt 0.375000 0.750000
vt 0.291667 0.750000
vt 0.541667 0.500000
vt 0.625000 0.500000
vt 0.625000 0.750000
vt 0.541667 0.750000
vt 0.541667 0.416667
vt 0.625000 0.416667
vt 0.375000 0.416667
vt 0.458333 0.416667
vt 0.458333 0.500000
vt 0.458333 0.750000
vt 0.375000 0.000000
vt 0.458333 0.000000
vt 0.458333 0.250000
vt 0.375000 0.250000
vt 0.375000 0.916667
vt 0.458333 0.916667
vt 0.458333 1.000000
vt 0.375000 1.000000
vt 0.541667 0.833333
vt 0.458333 0.833333
vt 0.375000 0.833333
vt 0.541667 0.333333
vt 0.458333 0.333333
vt 0.375000 0.333333
vt 0.625000 0.333333
vt 0.125000 0.500000
vt 0.208333 0.500000
vt 0.208333 0.750000
vt 0.125000 0.750000
vt 0.625000 0.833333
vt 0.708333 0.500000
vt 0.708333 0.750000
s 0
usemtl Material
f 18/1/1 3/2/1 5/3/1 17/4/1
f 29/5/2 17/6/2 5/7/2 10/8/2
f 10/9/3 5/10/3 3/11/3 13/12/3
f 15/13/4 2/14/4 26/15/4 31/16/4
f 7/17/5 1/18/5 25/19/5 11/20/5
f 23/21/6 19/22/6 1/18/6 7/17/6
f 15/23/7 21/24/7 8/25/7 2/14/7
f 21/24/8 23/21/8 7/17/8 8/25/8
f 2/14/9 8/25/9 12/26/9 26/15/9
f 8/25/10 7/17/10 11/20/10 12/26/10
f 6/27/11 9/28/11 14/29/11 4/30/11
f 9/28/12 10/9/12 13/12/12 14/29/12
f 30/31/13 28/32/13 9/33/13 6/34/13
f 28/32/14 29/5/14 10/8/14 9/33/14
f 12/26/15 11/20/15 24/35/15 27/36/15
f 26/15/16 12/26/16 27/36/16 31/37/16
f 14/29/17 13/12/17 22/38/17 20/39/17
f 20/39/18 22/38/18 23/21/18 21/24/18
f 4/30/19 14/29/19 20/39/19 16/40/19
f 16/40/18 20/39/18 21/24/18 15/23/18
f 13/12/20 3/11/20 18/41/20 22/38/20
f 22/38/18 18/41/18 19/22/18 23/21/18
f 4/42/4 16/43/4 30/44/4 6/45/4
f 16/43/4 15/13/4 31/16/4 30/44/4
f 11/20/21 25/19/21 32/46/21 24/35/21
f 1/18/1 19/47/1 32/48/1 25/19/1
f 19/47/1 18/1/1 17/4/1 32/48/1
f 27/36/22 24/35/22 29/5/22 28/32/22
f 31/37/22 27/36/22 28/32/22 30/31/22
f 24/35/22 32/46/22 17/6/22 29/5/22
