# Blender 4.5.3 LTS
# www.blender.org
mtllib WhaleTail2.mtl
o Tail2
v -0.038909 -1.104524 9.015288
v -0.038909 1.104524 9.015288
v -0.051913 -0.635160 7.967803
v -0.051913 0.635160 7.967803
v 0.011295 -1.104524 9.015288
v 0.011295 1.104524 9.015288
v 0.024299 -0.635160 7.967803
v 0.024299 0.635160 7.967803
v -0.038909 -0.368175 8.527325
v -0.038909 0.368175 8.527325
v -0.051913 0.211720 7.967803
v -0.051913 -0.211720 7.967803
v 0.024299 0.211720 7.967803
v 0.024299 -0.211720 7.967803
v 0.011295 0.368175 8.527325
v 0.011295 -0.368175 8.527325
vn -0.9998 -0.0081 0.0194
vn -0.0000 -0.0000 -1.0000
vn 0.9998 -0.0081 0.0194
vn -0.0000 -0.5524 0.8336
vn -0.0000 -0.9126 -0.4089
vn -0.0000 0.9126 -0.4089
vn -0.0000 0.5524 0.8336
vn -0.0000 -0.0000 1.0000
vn 0.9998 0.0081 0.0194
vn 0.9997 -0.0000 0.0232
vn -0.9998 0.0081 0.0194
vn -0.9997 -0.0000 0.0232
vt 0.541667 0.000000
vt 0.625000 0.000000
vt 0.625000 0.250000
vt 0.541667 0.250000
vt 0.625000 0.500000
vt 0.541667 0.500000
vt 0.625000 0.750000
vt 0.541667 0.750000
vt 0.625000 1.000000
vt 0.541667 1.000000
vt 0.125000 0.500000
vt 0.375000 0.500000
vt 0.375000 0.750000
vt 0.125000 0.750000
vt 0.875000 0.500000
vt 0.875000 0.750000
vt 0.458333 0.750000
vt 0.458333 1.000000
vt 0.375000 1.000000
vt 0.458333 0.500000
vt 0.375000 0.250000
vt 0.458333 0.250000
vt 0.375000 0.000000
vt 0.458333 0.000000
s 0
f 10/1/1 2/2/1 4/3/1 11/4/1
f 11/4/2 4/3/2 8/5/2 13/6/2
f 13/6/3 8/5/3 6/7/3 15/8/3
f 15/8/4 6/7/4 2/9/4 10/10/4
f 3/11/5 7/12/5 5/13/5 1/14/5
f 8/5/6 4/15/6 2/16/6 6/7/6
f 5/13/7 16/17/7 9/18/7 1/19/7
f 16/17/8 15/8/8 10/10/8 9/18/8
f 7/12/9 14/20/9 16/17/9 5/13/9
f 14/20/10 13/6/10 15/8/10 16/17/10
f 3/21/2 12/22/2 14/20/2 7/12/2
f 12/22/2 11/4/2 13/6/2 14/20/2
f 1/23/11 9/24/11 12/22/11 3/21/11
f 9/24/12 10/1/12 11/4/12 12/22/12
