# Blender 4.5.3 LTS
# www.blender.org
mtllib WhalePart2.mtl
o Part2
v 1.000000 0.820324 0.083960
v 1.000000 -0.716300 0.083960
v 1.000000 0.820324 1.412537
v 1.000000 -0.716300 1.412537
v -1.000000 0.820324 0.083960
v -1.000000 -0.716300 0.083960
v -1.000000 0.820324 1.412537
v -1.000000 -0.716300 1.412537
v 1.612539 0.333333 0.443313
v 1.612539 -0.333333 0.443313
v -1.612539 -0.333333 1.932653
v -1.612539 0.333333 1.932653
v 1.612539 0.333333 1.932653
v 1.612539 -0.333333 1.932653
v -1.612539 0.333333 0.443313
v -1.612539 -0.333333 0.443313
v 0.333333 -0.716300 0.083960
v -0.333333 -0.716300 0.083960
v 0.333333 0.820324 1.412537
v -0.333333 0.820324 1.412537
v -0.333333 -0.716300 1.412537
v 0.333333 -0.716300 1.412537
v -0.333333 0.820324 0.083960
v 0.333333 0.820324 0.083960
v -0.537513 -0.333333 0.083960
v 0.537513 -0.333333 0.083960
v -0.537513 0.333333 0.083960
v 0.537513 0.333333 0.083960
v 0.537513 -0.333333 1.412537
v -0.537513 -0.333333 1.412537
v 0.537513 0.333333 1.412537
v -0.537513 0.333333 1.412537
v 1.000000 0.820324 1.412537
v 1.000000 -0.716300 1.412537
v -1.000000 0.820324 1.412537
v -1.000000 -0.716300 1.412537
v 0.333333 0.820324 1.412537
v -0.333333 0.820324 1.412537
v -0.333333 -0.716300 1.412537
v 0.333333 -0.716300 1.412537
v 0.537513 -0.333333 1.412537
v -0.537513 -0.333333 1.412537
v 0.537513 0.333333 1.412537
v -0.537513 0.333333 1.412537
v 0.333333 0.820324 1.412537
v -0.333333 0.820324 1.412537
v -0.333333 -0.716300 1.412537
v 0.333333 -0.716300 1.412537
v 0.333333 0.820324 1.412537
v -0.333333 0.820324 1.412537
v -0.333333 -0.716300 1.412537
v 0.333333 -0.716300 1.412537
v 1.478212 -0.051892 1.439283
v 1.478212 0.051892 1.439283
v 1.478212 -0.051892 0.970728
v 1.478212 0.051892 0.970728
v 3.478212 -0.051892 1.735557
v 3.478212 0.051892 1.735557
v 3.478212 -0.051892 0.674454
v 3.478212 0.051892 0.674454
v 1.478212 -0.051892 1.126913
v 1.478212 -0.051892 1.283098
v 1.478212 0.051892 1.283098
v 1.478212 0.051892 1.126913
v 3.249436 -0.051892 1.381856
v 3.249436 -0.051892 1.028155
v 3.249436 0.051892 1.028155
v 3.249436 0.051892 1.381856
v -1.505826 -0.051892 1.439283
v -1.505826 0.051892 1.439283
v -1.505826 -0.051892 0.970728
v -1.505826 0.051892 0.970728
v -3.505826 -0.051892 1.735557
v -3.505826 0.051892 1.735557
v -3.505826 -0.051892 0.674454
v -3.505826 0.051892 0.674454
v -1.505826 -0.051892 1.126913
v -1.505826 -0.051892 1.283098
v -1.505826 0.051892 1.283098
v -1.505826 0.051892 1.126913
v -3.277050 -0.051892 1.381856
v -3.277050 -0.051892 1.028155
v -3.277050 0.051892 1.028155
v -3.277050 0.051892 1.381856
vn -0.0000 1.0000 -0.0000
vn 0.2761 0.2622 0.9247
vn -0.6223 0.7828 -0.0000
vn -0.0000 -1.0000 -0.0000
vn 0.6223 0.7828 -0.0000
vn 0.1984 -0.1885 -0.9618
vn 0.1963 0.2371 -0.9515
vn 0.3170 -0.0000 -0.9484
vn 0.5301 -0.8479 -0.0000
vn 1.0000 -0.0000 -0.0000
vn -0.5301 -0.8479 -0.0000
vn -1.0000 -0.0000 -0.0000
vn 0.2704 -0.3266 0.9056
vn 0.4355 -0.0000 0.9002
vn -0.4355 -0.0000 0.9002
vn -0.2704 -0.3266 0.9056
vn -0.3170 -0.0000 -0.9484
vn -0.0000 -0.0000 -1.0000
vn -0.1963 0.2371 -0.9515
vn -0.1984 -0.1885 -0.9618
vn -0.2761 0.2622 0.9247
vn -0.0000 -0.0000 1.0000
vn -0.1465 -0.0000 -0.9892
vn 0.8397 -0.0000 -0.5431
vn -0.1465 -0.0000 0.9892
vn 0.8397 -0.0000 0.5431
vt 0.791667 0.500000
vt 0.875000 0.500000
vt 0.875000 0.750000
vt 0.791667 0.750000
vt 0.541667 0.916667
vt 0.625000 0.916667
vt 0.625000 1.000000
vt 0.541667 1.000000
vt 0.541667 0.000000
vt 0.625000 0.000000
vt 0.625000 0.250000
vt 0.541667 0.250000
vt 0.291667 0.500000
vt 0.375000 0.500000
vt 0.375000 0.750000
vt 0.291667 0.750000
vt 0.541667 0.500000
vt 0.625000 0.500000
vt 0.625000 0.750000
vt 0.541667 0.750000
vt 0.541667 0.416667
vt 0.625000 0.416667
vt 0.375000 0.416667
vt 0.458333 0.416667
vt 0.458333 0.500000
vt 0.458333 0.750000
vt 0.375000 0.000000
vt 0.458333 0.000000
vt 0.458333 0.250000
vt 0.375000 0.250000
vt 0.375000 0.916667
vt 0.458333 0.916667
vt 0.458333 1.000000
vt 0.375000 1.000000
vt 0.541667 0.833333
vt 0.458333 0.833333
vt 0.375000 0.833333
vt 0.541667 0.333333
vt 0.458333 0.333333
vt 0.375000 0.333333
vt 0.625000 0.333333
vt 0.125000 0.500000
vt 0.208333 0.500000
vt 0.208333 0.750000
vt 0.125000 0.750000
vt 0.625000 0.833333
vt 0.708333 0.500000
vt 0.708333 0.750000
vt 0.375000 0.166667
vt 0.625000 0.166667
vt 0.375000 0.666667
vt 0.625000 0.666667
vt 0.125000 0.666667
vt 0.875000 0.666667
vt 0.875000 0.583333
vt 0.625000 0.583333
vt 0.375000 0.583333
vt 0.125000 0.583333
vt 0.625000 0.083333
vt 0.375000 0.083333
s 0
usemtl Material
f 23/1/1 5/2/1 7/3/1 20/4/1
f 32/5/2 20/6/2 7/7/2 12/8/2
f 12/9/3 7/10/3 5/11/3 15/12/3
f 17/13/4 2/14/4 4/15/4 22/16/4
f 9/17/5 1/18/5 3/19/5 13/20/5
f 28/21/6 24/22/6 1/18/6 9/17/6
f 17/23/7 26/24/7 10/25/7 2/14/7
f 26/24/8 28/21/8 9/17/8 10/25/8
f 2/14/9 10/25/9 14/26/9 4/15/9
f 10/25/10 9/17/10 13/20/10 14/26/10
f 8/27/11 11/28/11 16/29/11 6/30/11
f 11/28/12 12/9/12 15/12/12 16/29/12
f 21/31/13 30/32/13 11/33/13 8/34/13
f 30/32/14 32/5/14 12/8/14 11/33/14
f 14/26/15 13/20/15 31/35/15 29/36/15
f 4/15/16 14/26/16 29/36/16 22/37/16
f 16/29/17 15/12/17 27/38/17 25/39/17
f 25/39/18 27/38/18 28/21/18 26/24/18
f 6/30/19 16/29/19 25/39/19 18/40/19
f 18/40/18 25/39/18 26/24/18 17/23/18
f 15/12/20 5/11/20 23/41/20 27/38/20
f 27/38/18 23/41/18 24/22/18 28/21/18
f 6/42/4 18/43/4 21/44/4 8/45/4
f 18/43/4 17/13/4 22/16/4 21/44/4
f 13/20/21 3/19/21 19/46/21 31/35/21
f 1/18/1 24/47/1 19/48/1 3/19/1
f 24/47/1 23/1/1 20/4/1 19/48/1
f 41/36/22 43/35/22 44/5/22 42/32/22
f 40/37/22 41/36/22 42/32/22 39/31/22
f 43/35/22 37/46/22 38/6/22 44/5/22
f 61/49/12 64/50/12 56/11/12 55/30/12
f 55/30/23 56/11/23 60/18/23 59/14/23
f 65/51/24 68/52/24 58/19/24 57/15/24
f 57/15/25 58/19/25 54/7/25 53/34/25
f 62/53/4 65/51/4 57/15/4 53/45/4
f 68/52/1 63/54/1 54/3/1 58/19/1
f 60/18/1 56/2/1 64/55/1 67/56/1
f 67/56/1 64/55/1 63/54/1 68/52/1
f 55/42/4 59/14/4 66/57/4 61/58/4
f 61/58/4 66/57/4 65/51/4 62/53/4
f 59/14/26 60/18/26 67/56/26 66/57/26
f 66/57/10 67/56/10 68/52/10 65/51/10
f 53/27/12 54/10/12 63/59/12 62/60/12
f 62/60/12 63/59/12 64/50/12 61/49/12
f 77/49/12 80/50/12 72/11/12 71/30/12
f 71/30/25 72/11/25 76/18/25 75/14/25
f 81/51/26 84/52/26 74/19/26 73/15/26
f 73/15/23 74/19/23 70/7/23 69/34/23
f 78/53/1 81/51/1 73/15/1 69/45/1
f 84/52/4 79/54/4 70/3/4 74/19/4
f 76/18/4 72/2/4 80/55/4 83/56/4
f 83/56/4 80/55/4 79/54/4 84/52/4
f 71/42/1 75/14/1 82/57/1 77/58/1
f 77/58/1 82/57/1 81/51/1 78/53/1
f 75/14/24 76/18/24 83/56/24 82/57/24
f 82/57/10 83/56/10 84/52/10 81/51/10
f 69/27/12 70/10/12 79/59/12 78/60/12
f 78/60/12 79/59/12 80/50/12 77/49/12
l 47 48
l 45 46
l 38 35
l 40 34
l 33 37
l 36 39
l 49 50
l 51 52
